# This file uses centimeters as units for non-parametric coordinates.

mtllib CrystalDrop3.mtl
g default
v 0.338643 -0.002041 -0.147160
v 0.100070 -0.002041 -0.245980
v -0.138503 -0.002041 -0.147160
v -0.237324 -0.002041 0.091413
v -0.138503 -0.002041 0.329986
v 0.100070 -0.002041 0.428807
v 0.338643 -0.002041 0.329986
v 0.437463 -0.002041 0.091413
v 0.480614 1.137936 -0.289132
v 0.100070 1.074304 -0.446759
v -0.280475 1.166185 -0.289132
v -0.438103 0.932277 0.091413
v -0.280475 1.131799 0.471958
v 0.100070 1.007096 0.629585
v 0.480614 0.985371 0.471958
v 0.638242 0.946268 0.091413
v 0.100070 1.803060 0.091413
v -0.082999 -0.002041 0.091413
v -0.010679 -0.002041 0.202162
v 0.100070 -0.002041 0.281085
v 0.229531 -0.002041 0.220875
v 0.277990 -0.002041 0.091413
v 0.213784 -0.002041 -0.022302
v 0.100070 -0.002041 -0.055427
v -0.008081 -0.002041 -0.016738
v 0.100070 -0.002041 0.091413
v 0.073897 0.031113 -0.233064
v 0.070066 -0.005826 -0.398029
v -0.047084 -0.065083 -0.504599
v -0.208926 -0.111947 -0.490348
v -0.320658 -0.118965 -0.363623
v -0.199680 -0.022769 -0.092088
v -0.037835 0.024095 -0.106339
v -0.075035 0.827224 -0.343992
v -0.010326 0.617281 -0.600538
v -0.226742 0.659028 -0.766780
v -0.638242 0.575409 -0.562403
v -0.633537 0.601042 -0.292160
v -0.192858 0.667529 -0.122950
v -0.464736 1.062040 -0.538064
v -0.169797 -0.080834 -0.402524
v -0.214959 -0.078760 -0.328647
v -0.232130 -0.065345 -0.242303
v -0.164784 -0.032445 -0.186419
v -0.078270 -0.008056 -0.197093
v -0.029350 -0.008159 -0.267228
v -0.039190 -0.027344 -0.341728
v -0.088794 -0.053517 -0.391844
v -0.123381 -0.043926 -0.298343
v -0.398837 0.525728 -0.753231
v -0.507932 0.504241 -0.697014
v -0.399763 0.352293 -0.683248
v -0.437796 0.557654 -0.700272
v -0.476655 0.635108 -0.137786
v -0.409903 0.660499 -0.115697
v -0.411284 0.548478 -0.109257
v -0.451043 0.711200 -0.176154
v -0.317786 -0.091261 -0.239899
v -0.287540 -0.067212 -0.172015
v -0.396493 0.077172 -0.219563
v -0.295654 -0.077856 -0.209569
v -0.009229 0.062367 0.252844
v -0.122720 0.060829 0.166622
v -0.260286 0.026697 0.181688
v -0.341343 -0.020035 0.289215
v -0.318412 -0.051991 0.426216
v -0.067355 -0.016321 0.497372
v 0.013703 0.030411 0.389845
v -0.066529 0.732419 0.403150
v -0.223759 0.606879 0.201714
v -0.440356 0.662986 0.265684
v -0.533071 0.543857 0.629249
v -0.352045 0.517594 0.766780
v -0.003320 0.557907 0.571233
v -0.369539 0.946419 0.593516
v -0.260144 -0.008498 0.312229
v -0.235584 -0.021355 0.379771
v -0.186925 -0.026092 0.436733
v -0.111473 -0.006484 0.425184
v -0.070205 0.018489 0.366063
v -0.090134 0.032442 0.298212
v -0.145932 0.029404 0.264277
v -0.207549 0.014939 0.267977
v -0.163821 0.005188 0.339530
v -0.537328 0.544828 0.367841
v -0.560507 0.513449 0.465352
v -0.512574 0.389636 0.380344
v -0.519623 0.560454 0.424744
v -0.165529 0.523950 0.746353
v -0.113221 0.543297 0.717021
v -0.122825 0.449851 0.705942
v -0.168154 0.594262 0.720364
v -0.233293 -0.050838 0.490883
v -0.170530 -0.041920 0.508672
v -0.241702 0.081578 0.576023
v -0.200423 -0.044363 0.493512
vt 0.494923 0.158112
vt 0.536513 0.128475
vt 0.596963 0.466767
vt 0.496328 0.464696
vt 0.580284 0.067225
vt 0.682797 0.527845
vt 0.207682 0.000000
vt 0.259168 0.063449
vt 0.099409 0.339004
vt 0.000000 0.416431
vt 0.291178 0.103232
vt 0.188105 0.399862
vt 0.337108 0.141542
vt 0.267152 0.390459
vt 0.387629 0.162060
vt 0.344256 0.403185
vt 0.439572 0.168196
vt 0.424627 0.409789
vt 0.460359 0.116528
vt 0.471177 0.092770
vt 0.455975 0.055360
vt 0.298396 0.000675
vt 0.328169 0.041898
vt 0.342660 0.080505
vt 0.358487 0.109813
vt 0.394881 0.126677
vt 0.431512 0.129804
vt 0.297979 0.671293
vt 0.412364 0.083498
vt 0.299427 0.671673
vt 0.352246 0.690514
vt 0.324142 0.860232
vt 0.259561 0.869787
vt 0.404627 0.704601
vt 0.352951 0.915643
vt 0.141536 0.664331
vt 0.124505 0.716555
vt 0.125863 0.663614
vt 0.110402 0.664264
vt 0.241843 0.667207
vt 0.220073 0.831168
vt 0.062121 0.559380
vt 0.107657 0.553685
vt 0.099367 0.583842
vt 0.078875 0.588696
vt 0.033991 0.595509
vt 0.065536 0.604108
vt 0.039473 0.640851
vt 0.063323 0.627301
vt 0.074331 0.669345
vt 0.084109 0.638075
vt 0.143899 0.581905
vt 0.149512 0.627454
vt 0.123178 0.620038
vt 0.119295 0.595810
vt 0.203170 1.000000
vt 0.014049 0.831740
vt 0.028803 0.882235
vt 0.000000 0.893394
vt 0.020265 0.909593
vt 0.073724 0.886461
vt 0.127013 0.860638
vt 0.174952 0.814980
vt 0.179643 0.837816
vt 0.168012 0.839908
vt 0.176458 0.859197
vt 0.108487 0.640525
vt 0.091768 0.611301
vt 0.449193 0.717417
vt 0.494820 0.720636
vt 0.427347 0.875038
vt 0.394081 0.953627
vt 0.402193 0.925213
vt 0.184183 0.666630
vt 0.128423 0.654402
vt 0.118242 0.657552
vt 0.789245 0.634715
vt 0.838927 0.646131
vt 0.832525 0.819828
vt 0.764134 0.831803
vt 0.888174 0.651507
vt 0.865664 0.877361
vt 0.640176 0.632771
vt 0.626354 0.683421
vt 0.625249 0.632731
vt 0.610590 0.633999
vt 0.735197 0.632639
vt 0.724416 0.793086
vt 0.857152 0.620134
vt 0.857699 0.575914
vt 0.885529 0.587868
vt 0.887494 0.608062
vt 0.900542 0.622809
vt 0.932181 0.653011
vt 0.922467 0.628093
vt 0.964010 0.621739
vt 0.935527 0.609473
vt 0.889410 0.545030
vt 0.933693 0.545627
vt 0.923251 0.569947
vt 0.899553 0.570435
vt 0.695066 0.954442
vt 0.525715 0.795712
vt 0.542579 0.841925
vt 0.519255 0.861064
vt 0.538115 0.866865
vt 0.584684 0.844441
vt 0.634459 0.820930
vt 0.678912 0.777377
vt 0.684657 0.799617
vt 0.673149 0.801455
vt 0.680813 0.819838
vt 0.941067 0.586775
vt 0.910865 0.598791
vt 0.575432 0.640141
vt 0.530745 0.644208
vt 0.516317 0.923671
vt 0.920684 0.855403
vt 0.936877 0.804739
vt 0.680682 0.633687
vt 0.956872 0.569444
vt 0.958715 0.579731
vt 0.964454 0.588467
vn 0.391869 -0.165073 -0.905091
vn 0.391869 -0.165073 -0.905091
vn 0.391869 -0.165073 -0.905091
vn 0.391869 -0.165073 -0.905091
vn -0.398120 -0.163031 -0.902730
vn -0.398120 -0.163031 -0.902730
vn -0.398120 -0.163031 -0.902730
vn -0.398120 -0.163031 -0.902730
vn -0.884986 -0.173446 -0.432106
vn -0.884986 -0.173446 -0.432106
vn -0.884986 -0.173446 -0.432106
vn -0.884986 -0.173446 -0.432106
vn -0.888020 -0.176320 0.424655
vn -0.888020 -0.176320 0.424655
vn -0.888020 -0.176320 0.424655
vn -0.888020 -0.176320 0.424655
vn -0.406197 -0.170496 0.897739
vn -0.406197 -0.170496 0.897739
vn -0.406197 -0.170496 0.897739
vn -0.406197 -0.170496 0.897739
vn 0.370766 -0.182685 0.910582
vn 0.370766 -0.182685 0.910581
vn 0.370766 -0.182685 0.910581
vn 0.370766 -0.182685 0.910582
vn 0.903108 -0.188218 0.385966
vn 0.903108 -0.188218 0.385966
vn 0.903108 -0.188218 0.385966
vn 0.903108 -0.188218 0.385966
vn 0.889379 -0.174696 -0.422476
vn 0.889379 -0.174696 -0.422476
vn 0.889379 -0.174696 -0.422476
vn 0.889379 -0.174696 -0.422476
vn 0.000000 -1.000000 0.000000
vn 0.000000 -1.000000 0.000000
vn 0.000000 -1.000000 0.000000
vn 0.000000 -1.000000 0.000000
vn 0.000000 -1.000000 0.000000
vn 0.000000 -1.000000 0.000000
vn 0.000000 -1.000000 0.000000
vn 0.000000 -1.000000 0.000000
vn 0.000000 -1.000000 0.000000
vn 0.000000 -1.000000 0.000000
vn 0.000000 -1.000000 0.000000
vn 0.000000 -1.000000 0.000000
vn 0.000000 -1.000000 0.000000
vn 0.000000 -1.000000 0.000000
vn 0.000000 -1.000000 0.000000
vn 0.000000 -1.000000 0.000000
vn 0.000000 -1.000000 0.000000
vn 0.000000 -1.000000 0.000000
vn 0.000000 -1.000000 0.000000
vn 0.000000 -1.000000 0.000000
vn 0.000000 -1.000000 0.000000
vn 0.000000 -1.000000 0.000000
vn 0.000000 -1.000000 0.000000
vn 0.000000 -1.000000 0.000000
vn 0.000000 -1.000000 -0.000000
vn 0.000000 -1.000000 -0.000000
vn 0.000000 -1.000000 -0.000000
vn 0.000000 -1.000000 -0.000000
vn 0.000000 -1.000000 0.000000
vn 0.000000 -1.000000 0.000000
vn 0.000000 -1.000000 0.000000
vn 0.000000 -1.000000 0.000000
vn 0.227726 0.578444 -0.783290
vn 0.227726 0.578444 -0.783290
vn 0.227726 0.578444 -0.783290
vn -0.186445 0.583637 -0.790320
vn -0.186445 0.583637 -0.790320
vn -0.186445 0.583637 -0.790320
vn -0.850288 0.525507 -0.029193
vn -0.850288 0.525507 -0.029193
vn -0.850288 0.525507 -0.029193
vn -0.848160 0.524189 0.076485
vn -0.848160 0.524189 0.076485
vn -0.848160 0.524189 0.076485
vn -0.157599 0.553115 0.818063
vn -0.157599 0.553115 0.818063
vn -0.157599 0.553115 0.818063
vn 0.351221 0.524430 0.775640
vn 0.351221 0.524430 0.775640
vn 0.351221 0.524430 0.775640
vn 0.811960 0.510011 0.283918
vn 0.811960 0.510011 0.283918
vn 0.811960 0.510011 0.283918
vn 0.843916 0.530083 -0.082576
vn 0.843916 0.530083 -0.082576
vn 0.843916 0.530083 -0.082576
vn 0.000000 -1.000000 0.000000
vn 0.000000 -1.000000 0.000000
vn 0.000000 -1.000000 0.000000
vn 0.000000 -1.000000 0.000000
vn 0.000000 -1.000000 0.000000
vn 0.000000 -1.000000 0.000000
vn 0.000000 -1.000000 0.000000
vn 0.000000 -1.000000 0.000000
vn 0.000000 -1.000000 0.000000
vn 0.000000 -1.000000 0.000000
vn 0.000000 -1.000000 0.000000
vn 0.000000 -1.000000 0.000000
vn 0.000000 -1.000000 -0.000000
vn 0.000000 -1.000000 -0.000000
vn 0.000000 -1.000000 -0.000000
vn 0.000000 -1.000000 -0.000000
vn 0.984711 0.168702 0.043411
vn 0.984711 0.168702 0.043411
vn 0.984711 0.168702 0.043411
vn 0.984711 0.168702 0.043411
vn 0.631178 -0.141232 -0.762672
vn 0.631178 -0.141232 -0.762672
vn 0.631178 -0.141232 -0.762672
vn 0.631178 -0.141232 -0.762672
vn -0.804411 -0.502860 0.316314
vn -0.804411 -0.502859 0.316314
vn -0.804411 -0.502859 0.316314
vn -0.656193 -0.384995 0.648991
vn -0.656193 -0.384995 0.648991
vn -0.656193 -0.384995 0.648991
vn 0.764400 0.215246 0.607751
vn 0.764400 0.215246 0.607751
vn 0.764400 0.215246 0.607751
vn 0.764400 0.215245 0.607751
vn 0.288791 -0.935665 0.202807
vn 0.288791 -0.935665 0.202807
vn 0.288791 -0.935665 0.202807
vn 0.288791 -0.935665 0.202807
vn 0.288793 -0.935665 0.202807
vn 0.288793 -0.935664 0.202807
vn 0.288793 -0.935665 0.202807
vn 0.288793 -0.935664 0.202807
vn 0.288794 -0.935665 0.202805
vn 0.288794 -0.935665 0.202805
vn 0.288794 -0.935664 0.202805
vn 0.288794 -0.935665 0.202805
vn 0.288792 -0.935664 0.202808
vn 0.288792 -0.935665 0.202808
vn 0.288792 -0.935664 0.202808
vn 0.288792 -0.935664 0.202808
vn 0.288793 -0.935664 0.202808
vn 0.288793 -0.935664 0.202808
vn 0.288793 -0.935664 0.202808
vn 0.288793 -0.935664 0.202808
vn 0.288789 -0.935666 0.202808
vn 0.288789 -0.935666 0.202808
vn 0.288789 -0.935666 0.202808
vn 0.288789 -0.935666 0.202808
vn 0.611187 0.681086 -0.403202
vn 0.611187 0.681086 -0.403202
vn 0.611187 0.681086 -0.403202
vn 0.544485 0.633516 -0.549722
vn 0.544485 0.633516 -0.549722
vn 0.544485 0.633516 -0.549722
vn -0.375313 -0.345117 -0.860252
vn -0.375313 -0.345117 -0.860252
vn -0.375313 -0.345117 -0.860252
vn -0.462926 0.566284 -0.681925
vn -0.462926 0.566284 -0.681925
vn -0.462926 0.566284 -0.681925
vn -0.941561 0.336485 -0.015523
vn -0.941561 0.336485 -0.015523
vn -0.941561 0.336485 -0.015523
vn -0.333515 0.058206 0.940946
vn -0.333515 0.058206 0.940946
vn -0.333515 0.058206 0.940946
vn -0.439810 0.517975 0.733669
vn -0.439810 0.517975 0.733669
vn -0.439810 0.517974 0.733669
vn 0.146408 0.763166 0.629398
vn 0.146408 0.763166 0.629398
vn 0.146408 0.763166 0.629399
vn 0.288795 -0.935663 0.202810
vn 0.288795 -0.935663 0.202810
vn 0.288795 -0.935663 0.202810
vn 0.288795 -0.935663 0.202810
vn 0.288789 -0.935665 0.202809
vn 0.288789 -0.935665 0.202809
vn 0.288789 -0.935665 0.202809
vn 0.288789 -0.935665 0.202809
vn 0.288794 -0.935664 0.202806
vn 0.288794 -0.935664 0.202806
vn 0.288794 -0.935664 0.202806
vn 0.288794 -0.935664 0.202806
vn 0.288791 -0.935665 0.202808
vn 0.288791 -0.935665 0.202808
vn 0.288791 -0.935665 0.202808
vn 0.288791 -0.935665 0.202808
vn -0.744355 -0.474856 -0.469519
vn -0.744355 -0.474856 -0.469519
vn -0.744355 -0.474856 -0.469519
vn -0.633692 -0.504257 -0.586651
vn -0.633692 -0.504257 -0.586651
vn -0.633692 -0.504257 -0.586651
vn -0.633694 -0.504259 -0.586647
vn -0.633694 -0.504259 -0.586647
vn -0.633694 -0.504259 -0.586647
vn -0.537190 0.232090 -0.810902
vn -0.537190 0.232090 -0.810902
vn -0.537190 0.232090 -0.810902
vn -0.444154 0.539593 -0.715239
vn -0.444154 0.539593 -0.715239
vn -0.444154 0.539593 -0.715239
vn -0.401884 0.260818 -0.877760
vn -0.401884 0.260818 -0.877760
vn -0.401884 0.260818 -0.877760
vn -0.479543 0.549591 -0.684097
vn -0.479543 0.549591 -0.684097
vn -0.479543 0.549591 -0.684097
vn 0.159093 -0.300972 -0.940269
vn 0.159093 -0.300972 -0.940269
vn 0.159093 -0.300972 -0.940269
vn 0.026728 -0.374186 -0.926968
vn 0.026728 -0.374186 -0.926968
vn 0.026728 -0.374186 -0.926968
vn 0.026722 -0.374186 -0.926969
vn 0.026722 -0.374186 -0.926969
vn 0.026722 -0.374186 -0.926969
vn 0.032286 0.033568 0.998915
vn 0.032286 0.033568 0.998915
vn 0.032286 0.033568 0.998915
vn 0.071388 0.056372 0.995854
vn 0.071388 0.056372 0.995854
vn 0.071388 0.056372 0.995854
vn 0.071362 0.056367 0.995857
vn 0.071362 0.056367 0.995857
vn 0.071362 0.056367 0.995857
vn -0.019892 0.723314 0.690233
vn -0.019892 0.723314 0.690233
vn -0.019892 0.723314 0.690233
vn -0.019892 0.723314 0.690233
vn -0.659168 0.524052 0.539321
vn -0.659168 0.524052 0.539321
vn -0.659168 0.524052 0.539321
vn -0.659168 0.524052 0.539321
vn 0.288792 -0.935665 0.202807
vn 0.288792 -0.935665 0.202807
vn 0.288792 -0.935665 0.202807
vn 0.288797 -0.935662 0.202813
vn 0.288797 -0.935662 0.202813
vn 0.288797 -0.935662 0.202813
vn 0.288787 -0.935667 0.202805
vn 0.288787 -0.935667 0.202805
vn 0.288787 -0.935667 0.202805
vn -0.664562 -0.200968 0.719701
vn -0.664562 -0.200968 0.719701
vn -0.664562 -0.200968 0.719701
vn -0.602121 -0.199811 0.772998
vn -0.602121 -0.199811 0.772998
vn -0.602121 -0.199811 0.772998
vn -0.602121 -0.199810 0.772998
vn -0.602121 -0.199810 0.772998
vn -0.602121 -0.199810 0.772998
vn -0.602130 -0.199808 0.772992
vn -0.602130 -0.199808 0.772991
vn -0.602130 -0.199808 0.772991
vn -0.912533 -0.405378 0.054338
vn -0.912533 -0.405378 0.054338
vn -0.912533 -0.405378 0.054338
vn -0.915411 -0.387741 0.108077
vn -0.915411 -0.387741 0.108077
vn -0.915411 -0.387740 0.108077
vn -0.904855 -0.425247 0.020040
vn -0.904855 -0.425247 0.020040
vn -0.904855 -0.425247 0.020040
vn 0.288790 -0.935666 0.202805
vn 0.288790 -0.935666 0.202805
vn 0.288790 -0.935666 0.202805
vn 0.288792 -0.935665 0.202806
vn 0.288792 -0.935665 0.202806
vn 0.288792 -0.935665 0.202806
vn 0.288795 -0.935663 0.202809
vn 0.288795 -0.935663 0.202809
vn 0.288795 -0.935663 0.202809
vn 0.669256 0.196388 -0.716609
vn 0.669256 0.196388 -0.716609
vn 0.669256 0.196388 -0.716609
vn 0.669256 0.196388 -0.716609
vn -0.214775 0.047193 -0.975523
vn -0.214775 0.047193 -0.975523
vn -0.214775 0.047193 -0.975523
vn -0.214775 0.047193 -0.975523
vn -0.326097 -0.590522 0.738204
vn -0.326097 -0.590522 0.738203
vn -0.326097 -0.590522 0.738203
vn 0.038775 -0.538686 0.841614
vn 0.038775 -0.538686 0.841614
vn 0.038775 -0.538686 0.841614
vn 0.973621 0.115008 -0.197068
vn 0.973621 0.115008 -0.197068
vn 0.973621 0.115008 -0.197068
vn 0.973621 0.115008 -0.197068
vn 0.206466 -0.944664 -0.254914
vn 0.206466 -0.944664 -0.254914
vn 0.206466 -0.944664 -0.254914
vn 0.206466 -0.944664 -0.254914
vn 0.206467 -0.944665 -0.254909
vn 0.206467 -0.944665 -0.254909
vn 0.206467 -0.944665 -0.254909
vn 0.206467 -0.944665 -0.254909
vn 0.206475 -0.944662 -0.254915
vn 0.206475 -0.944662 -0.254915
vn 0.206475 -0.944662 -0.254915
vn 0.206475 -0.944662 -0.254915
vn 0.206465 -0.944668 -0.254903
vn 0.206465 -0.944668 -0.254902
vn 0.206465 -0.944668 -0.254902
vn 0.206465 -0.944668 -0.254902
vn 0.206472 -0.944663 -0.254914
vn 0.206472 -0.944663 -0.254914
vn 0.206472 -0.944663 -0.254914
vn 0.206472 -0.944663 -0.254914
vn 0.206471 -0.944665 -0.254907
vn 0.206471 -0.944665 -0.254907
vn 0.206471 -0.944665 -0.254907
vn 0.206471 -0.944665 -0.254907
vn 0.163612 0.774844 -0.610613
vn 0.163612 0.774844 -0.610613
vn 0.163612 0.774844 -0.610613
vn 0.002630 0.756193 -0.654343
vn 0.002630 0.756193 -0.654343
vn 0.002630 0.756193 -0.654343
vn -0.944200 -0.173177 -0.280172
vn -0.944200 -0.173177 -0.280172
vn -0.944200 -0.173177 -0.280172
vn -0.735163 0.676528 0.042956
vn -0.735163 0.676528 0.042956
vn -0.735163 0.676528 0.042956
vn -0.551028 0.293193 0.781285
vn -0.551028 0.293193 0.781285
vn -0.551028 0.293193 0.781285
vn 0.525844 -0.153239 0.836664
vn 0.525844 -0.153239 0.836664
vn 0.525844 -0.153239 0.836664
vn 0.363578 0.334876 0.869292
vn 0.363578 0.334876 0.869292
vn 0.363578 0.334876 0.869292
vn 0.681746 0.620385 0.387743
vn 0.681746 0.620385 0.387743
vn 0.681746 0.620385 0.387743
vn 0.206471 -0.944663 -0.254913
vn 0.206471 -0.944664 -0.254913
vn 0.206471 -0.944663 -0.254913
vn 0.206471 -0.944663 -0.254913
vn 0.206466 -0.944666 -0.254909
vn 0.206466 -0.944666 -0.254909
vn 0.206466 -0.944666 -0.254909
vn 0.206466 -0.944666 -0.254909
vn 0.206464 -0.944666 -0.254911
vn 0.206464 -0.944666 -0.254911
vn 0.206464 -0.944666 -0.254911
vn 0.206464 -0.944666 -0.254911
vn 0.206469 -0.944663 -0.254915
vn 0.206469 -0.944663 -0.254915
vn 0.206469 -0.944663 -0.254915
vn 0.206469 -0.944663 -0.254915
vn -0.890536 -0.396693 0.222667
vn -0.890536 -0.396693 0.222667
vn -0.890536 -0.396693 0.222667
vn -0.916048 -0.396423 0.060866
vn -0.916048 -0.396423 0.060866
vn -0.916048 -0.396423 0.060866
vn -0.916048 -0.396423 0.060864
vn -0.916048 -0.396423 0.060864
vn -0.916048 -0.396423 0.060864
vn -0.926983 0.373851 -0.030620
vn -0.926983 0.373851 -0.030620
vn -0.926983 0.373851 -0.030620
vn -0.752842 0.658189 0.003908
vn -0.752842 0.658189 0.003908
vn -0.752842 0.658189 0.003908
vn -0.890381 0.421455 -0.172037
vn -0.890381 0.421455 -0.172037
vn -0.890381 0.421455 -0.172037
vn -0.749461 0.660007 0.051952
vn -0.749461 0.660007 0.051952
vn -0.749461 0.660007 0.051952
vn -0.667379 -0.091302 -0.739100
vn -0.667379 -0.091302 -0.739100
vn -0.667379 -0.091302 -0.739100
vn -0.749585 -0.171071 -0.639419
vn -0.749585 -0.171071 -0.639419
vn -0.749585 -0.171071 -0.639419
vn -0.749591 -0.171074 -0.639411
vn -0.749591 -0.171074 -0.639411
vn -0.749591 -0.171074 -0.639411
vn 0.794617 -0.174330 0.581544
vn 0.794617 -0.174330 0.581544
vn 0.794617 -0.174330 0.581544
vn 0.819728 -0.149789 0.552820
vn 0.819728 -0.149789 0.552820
vn 0.819728 -0.149789 0.552820
vn 0.819716 -0.149807 0.552832
vn 0.819716 -0.149807 0.552832
vn 0.819716 -0.149807 0.552832
vn 0.619693 0.561893 0.547957
vn 0.619693 0.561893 0.547957
vn 0.619693 0.561893 0.547957
vn 0.619693 0.561893 0.547957
vn 0.078194 0.372328 0.924801
vn 0.078194 0.372328 0.924801
vn 0.078194 0.372328 0.924801
vn 0.078194 0.372328 0.924801
vn 0.206468 -0.944664 -0.254912
vn 0.206468 -0.944664 -0.254912
vn 0.206468 -0.944664 -0.254912
vn 0.206473 -0.944666 -0.254901
vn 0.206473 -0.944666 -0.254901
vn 0.206473 -0.944666 -0.254901
vn 0.206479 -0.944663 -0.254908
vn 0.206479 -0.944663 -0.254908
vn 0.206479 -0.944663 -0.254908
vn 0.113556 -0.373967 0.920464
vn 0.113556 -0.373967 0.920464
vn 0.113556 -0.373967 0.920464
vn 0.193588 -0.381379 0.903921
vn 0.193588 -0.381379 0.903921
vn 0.193588 -0.381379 0.903921
vn 0.193635 -0.381380 0.903911
vn 0.193635 -0.381380 0.903911
vn 0.193635 -0.381380 0.903911
vn 0.193617 -0.381379 0.903915
vn 0.193617 -0.381379 0.903915
vn 0.193617 -0.381379 0.903915
vn -0.581772 -0.445070 0.680774
vn -0.581772 -0.445070 0.680774
vn -0.581772 -0.445070 0.680774
vn -0.539709 -0.439167 0.718224
vn -0.539709 -0.439167 0.718224
vn -0.539709 -0.439167 0.718224
vn -0.606182 -0.457010 0.650911
vn -0.606182 -0.457010 0.650911
vn -0.606182 -0.457010 0.650911
vn 0.206468 -0.944663 -0.254918
vn 0.206468 -0.944663 -0.254918
vn 0.206468 -0.944663 -0.254918
vn 0.206445 -0.944668 -0.254918
vn 0.206445 -0.944668 -0.254918
vn 0.206445 -0.944668 -0.254918
vn 0.206486 -0.944663 -0.254902
vn 0.206486 -0.944663 -0.254902
vn 0.206486 -0.944663 -0.254902
s off
g CrystalDrop3_pCylinder4
usemtl CrystalDrop3_initialShadingGroup
f 1/1/1 2/2/2 10/3/3 9/4/4
f 2/2/5 3/5/6 11/6/7 10/3/8
f 3/7/9 4/8/10 12/9/11 11/10/12
f 4/8/13 5/11/14 13/12/15 12/9/16
f 5/11/17 6/13/18 14/14/19 13/12/20
f 6/13/21 7/15/22 15/16/23 14/14/24
f 7/15/25 8/17/26 16/18/27 15/16/28
f 8/17/29 1/1/30 9/4/31 16/18/32
f 2/2/33 1/1/34 23/19/35 24/20/36
f 3/5/37 2/2/38 24/20/39 25/21/40
f 4/8/41 3/7/42 25/22/43 18/23/44
f 5/11/45 4/8/46 18/23/47 19/24/48
f 6/13/49 5/11/50 19/24/51 20/25/52
f 7/15/53 6/13/54 20/25/55 21/26/56
f 8/17/57 7/15/58 21/26/59 22/27/60
f 1/1/61 8/17/62 22/27/63 23/19/64
f 9/4/65 10/3/66 17/28/67
f 10/3/68 11/6/69 17/28/70
f 11/10/71 12/9/72 17/28/73
f 12/9/74 13/12/75 17/28/76
f 13/12/77 14/14/78 17/28/79
f 14/14/80 15/16/81 17/28/82
f 15/16/83 16/18/84 17/28/85
f 16/18/86 9/4/87 17/28/88
f 20/25/89 26/29/90 22/27/91 21/26/92
f 24/20/93 23/19/94 22/27/95 26/29/96
f 18/23/97 26/29/98 20/25/99 19/24/100
f 24/20/101 26/29/102 18/23/103 25/21/104
f 27/30/105 28/31/106 35/32/107 34/33/108
f 28/31/109 29/34/110 36/35/111 35/32/112
f 59/36/113 60/37/114 61/38/115
f 61/38/116 60/37/117 58/39/118
f 33/40/119 27/30/120 34/33/121 39/41/122
f 28/42/123 27/43/124 46/44/125 47/45/126
f 29/46/127 28/42/128 47/45/129 48/47/130
f 30/48/131 29/46/132 48/47/133 41/49/134
f 31/50/135 30/48/136 41/49/137 42/51/138
f 33/52/139 32/53/140 44/54/141 45/55/142
f 27/43/143 33/52/144 45/55/145 46/44/146
f 34/33/147 35/32/148 40/56/149
f 35/32/150 36/35/151 40/56/152
f 52/57/153 51/58/154 50/59/155
f 50/59/156 51/58/157 53/60/158
f 37/61/159 38/62/160 40/56/161
f 56/63/162 55/64/163 54/65/164
f 54/65/165 55/64/166 57/66/167
f 39/41/168 34/33/169 40/56/170
f 43/67/171 49/68/172 45/55/173 44/54/174
f 47/45/175 46/44/176 45/55/177 49/68/178
f 41/49/179 49/68/180 43/67/181 42/51/182
f 47/45/183 49/68/184 41/49/185 48/47/186
f 37/61/187 51/58/188 31/50/189
f 51/58/190 52/57/191 31/50/192
f 30/69/193 31/70/194 52/71/195
f 40/56/196 53/60/197 37/61/198
f 53/60/199 51/58/200 37/61/201
f 40/56/202 36/35/203 53/72/204
f 36/35/205 50/73/206 53/72/207
f 36/35/208 29/34/209 50/73/210
f 50/73/211 29/34/212 52/71/213
f 29/34/214 30/69/215 52/71/216
f 39/41/217 55/64/218 33/40/219
f 55/64/220 56/63/221 33/40/222
f 32/74/223 33/40/224 56/63/225
f 57/66/226 55/64/227 39/41/228 40/56/229
f 38/62/230 54/65/231 57/66/232 40/56/233
f 32/53/234 59/75/235 44/54/236
f 44/54/237 59/75/238 43/67/239
f 59/75/240 61/76/241 43/67/242
f 38/62/243 60/37/244 54/65/245
f 54/65/246 60/37/247 56/63/248
f 32/74/249 56/63/250 59/36/251
f 60/37/252 59/36/253 56/63/254
f 38/62/255 37/61/256 60/37/257
f 31/50/258 58/39/259 37/61/260
f 58/39/261 60/37/262 37/61/263
f 31/50/264 42/51/265 58/39/266
f 42/51/267 43/67/268 58/39/269
f 61/76/270 58/39/271 43/67/272
f 62/77/273 63/78/274 70/79/275 69/80/276
f 63/78/277 64/81/278 71/82/279 70/79/280
f 94/83/281 95/84/282 96/85/283
f 96/85/284 95/84/285 93/86/286
f 68/87/287 62/77/288 69/80/289 74/88/290
f 63/89/291 62/90/292 81/91/293 82/92/294
f 64/81/295 63/89/296 82/92/297 83/93/298
f 65/94/299 64/81/300 83/93/301 76/95/302
f 66/96/303 65/94/304 76/95/305 77/97/306
f 68/98/307 67/99/308 79/100/309 80/101/310
f 62/90/311 68/98/312 80/101/313 81/91/314
f 69/80/315 70/79/316 75/102/317
f 70/79/318 71/82/319 75/102/320
f 87/103/321 86/104/322 85/105/323
f 85/105/324 86/104/325 88/106/326
f 72/107/327 73/108/328 75/102/329
f 91/109/330 90/110/331 89/111/332
f 89/111/333 90/110/334 92/112/335
f 74/88/336 69/80/337 75/102/338
f 78/113/339 84/114/340 80/101/341 79/100/342
f 82/92/343 81/91/344 80/101/345 84/114/346
f 76/95/347 84/114/348 78/113/349 77/97/350
f 82/92/351 84/114/352 76/95/353 83/93/354
f 72/107/355 86/104/356 66/115/357
f 86/104/358 87/103/359 66/115/360
f 65/116/361 66/115/362 87/103/363
f 75/102/364 88/106/365 72/107/366
f 88/106/367 86/104/368 72/107/369
f 75/102/370 71/117/371 88/106/372
f 71/117/373 85/105/374 88/106/375
f 71/82/376 64/81/377 85/118/378
f 85/118/379 64/81/380 87/119/381
f 64/81/382 65/94/383 87/119/384
f 74/88/385 90/110/386 68/87/387
f 90/110/388 91/109/389 68/87/390
f 67/120/391 68/87/392 91/109/393
f 92/112/394 90/110/395 74/88/396 75/102/397
f 73/108/398 89/111/399 92/112/400 75/102/401
f 67/99/402 94/121/403 79/100/404
f 79/100/405 94/121/406 78/113/407
f 94/121/408 96/122/409 78/113/410
f 73/108/411 95/84/412 89/111/413
f 89/111/414 95/84/415 91/109/416
f 67/120/417 91/109/418 94/83/419
f 95/84/420 94/83/421 91/109/422
f 73/108/423 72/107/424 95/84/425
f 66/115/426 93/86/427 72/107/428
f 93/86/429 95/84/430 72/107/431
f 66/96/432 77/97/433 93/123/434
f 77/97/435 78/113/436 93/123/437
f 96/122/438 93/123/439 78/113/440
