# This file uses centimeters as units for non-parametric coordinates.

mtllib CrystalDrop1.mtl
g default
v 0.299775 -0.002041 -0.387922
v 0.061202 -0.002041 -0.486741
v -0.177371 -0.002041 -0.387922
v -0.276192 -0.002041 -0.149347
v -0.177371 -0.002041 0.089226
v 0.061202 -0.002041 0.188046
v 0.299775 -0.002041 0.089226
v 0.398595 -0.002041 -0.149347
v 0.441747 1.137936 -0.529894
v 0.061202 1.074304 -0.687521
v -0.319343 1.166185 -0.529894
v -0.476971 0.932277 -0.149347
v -0.319343 1.131799 0.231197
v 0.061202 1.007096 0.388825
v 0.441747 0.985371 0.231197
v 0.599374 0.946268 -0.149347
v 0.061202 1.803060 -0.149347
v -0.121867 -0.002041 -0.149347
v -0.049547 -0.002041 -0.038599
v 0.061202 -0.002041 0.040325
v 0.190663 -0.002041 -0.019886
v 0.239122 -0.002041 -0.149347
v 0.174917 -0.002041 -0.263062
v 0.061202 -0.002041 -0.296189
v -0.046949 -0.002041 -0.257498
v 0.061202 -0.002041 -0.149347
v -0.048097 0.062367 0.173585
v -0.161587 0.060829 0.087364
v -0.299153 0.026697 0.102428
v -0.380211 -0.020035 0.209956
v -0.357279 -0.051991 0.346958
v -0.106223 -0.016321 0.418113
v -0.025165 0.030411 0.310586
v -0.105396 0.732419 0.323891
v -0.262627 0.606879 0.122454
v -0.479224 0.662986 0.186426
v -0.571939 0.543857 0.549990
v -0.390913 0.517594 0.687521
v -0.042188 0.557907 0.491973
v -0.408406 0.946419 0.514257
v -0.299011 -0.008498 0.232971
v -0.274451 -0.021355 0.300511
v -0.225793 -0.026092 0.357473
v -0.150341 -0.006484 0.345923
v -0.109073 0.018489 0.286804
v -0.129002 0.032442 0.218952
v -0.184800 0.029404 0.185017
v -0.246417 0.014939 0.188717
v -0.202688 0.005188 0.260270
v -0.576195 0.544828 0.288581
v -0.599374 0.513449 0.386092
v -0.551442 0.389636 0.301085
v -0.558490 0.560454 0.345485
v -0.204397 0.523950 0.667094
v -0.152089 0.543297 0.637761
v -0.161693 0.449851 0.626683
v -0.207021 0.594262 0.641105
v -0.272161 -0.050838 0.411624
v -0.209397 -0.041920 0.429411
v -0.280570 0.081578 0.496764
v -0.239290 -0.044363 0.414253
vt 0.355301 0.661927
vt 0.268322 0.689911
vt 0.114299 0.376055
vt 0.213551 0.350133
vt 0.187547 0.727472
vt -0.000000 0.341658
vt 0.850013 0.339370
vt 0.777784 0.392661
vt 0.599422 0.139253
vt 0.589197 -0.000000
vt 0.709461 0.460756
vt 0.501684 0.189136
vt 0.627269 0.520498
vt 0.459307 0.273495
vt 0.538812 0.572760
vt 0.392016 0.328193
vt 0.445368 0.615348
vt 0.316493 0.373243
vt 0.927505 0.355491
vt 0.973775 0.422079
vt 0.919763 0.434346
vt 0.895341 0.406347
vt 0.860335 0.398377
vt 0.820898 0.416121
vt 0.766451 0.469937
vt 0.821918 0.457195
vt 0.813609 0.535577
vt 0.838318 0.496393
vt 0.893613 0.549019
vt 0.882927 0.501841
vt 0.959883 0.502084
vt 0.917596 0.475425
vt 0.241403 0.059402
vt 0.870343 0.445762
vt 0.776521 0.678132
vt 0.828347 0.698551
vt 0.787140 0.856025
vt 0.728192 0.868126
vt 0.880291 0.715417
vt 0.813781 0.903821
vt 0.627520 0.665977
vt 0.605594 0.715269
vt 0.613351 0.663161
vt 0.599075 0.661491
vt 0.721228 0.673018
vt 0.687973 0.832990
vt 0.579965 0.551130
vt 0.624075 0.556886
vt 0.608869 0.583236
vt 0.588472 0.582836
vt 0.544685 0.578275
vt 0.572211 0.594140
vt 0.538926 0.622467
vt 0.564592 0.615537
vt 0.566156 0.658129
vt 0.581581 0.630723
vt 0.651166 0.592131
vt 0.645371 0.636171
vt 0.622347 0.622896
vt 0.624628 0.599248
vt 0.697976 1.000000
vt 0.880400 0.875734
vt 0.874468 0.927745
vt 0.855703 0.911626
vt 0.856143 0.930831
vt 0.532762 0.894095
vt 0.591511 0.865446
vt 0.645057 0.818853
vt 0.647950 0.842094
vt 0.635888 0.844284
vt 0.645692 0.863434
vt 0.603492 0.638652
vt 0.595029 0.607252
vt 0.894177 0.978088
vt 0.975926 0.754280
vt 0.927530 0.737999
vt 0.667074 0.670430
vt 0.618917 0.656346
vt 0.608467 0.656920
vn 0.391867 -0.165073 -0.905092
vn 0.391867 -0.165073 -0.905092
vn 0.391867 -0.165073 -0.905092
vn 0.391867 -0.165073 -0.905092
vn -0.398118 -0.163031 -0.902731
vn -0.398118 -0.163031 -0.902731
vn -0.398118 -0.163031 -0.902731
vn -0.398118 -0.163031 -0.902731
vn -0.884987 -0.173446 -0.432105
vn -0.884987 -0.173446 -0.432105
vn -0.884987 -0.173446 -0.432105
vn -0.884987 -0.173446 -0.432105
vn -0.888020 -0.176320 0.424656
vn -0.888020 -0.176320 0.424655
vn -0.888020 -0.176320 0.424655
vn -0.888020 -0.176320 0.424656
vn -0.406197 -0.170496 0.897739
vn -0.406197 -0.170496 0.897739
vn -0.406197 -0.170496 0.897739
vn -0.406197 -0.170496 0.897739
vn 0.370765 -0.182685 0.910582
vn 0.370765 -0.182685 0.910582
vn 0.370765 -0.182685 0.910582
vn 0.370765 -0.182685 0.910582
vn 0.903108 -0.188218 0.385967
vn 0.903108 -0.188218 0.385967
vn 0.903108 -0.188218 0.385967
vn 0.903108 -0.188218 0.385967
vn 0.889380 -0.174696 -0.422474
vn 0.889380 -0.174696 -0.422474
vn 0.889380 -0.174696 -0.422474
vn 0.889380 -0.174696 -0.422474
vn 0.000000 -1.000000 0.000000
vn 0.000000 -1.000000 0.000000
vn 0.000000 -1.000000 0.000000
vn 0.000000 -1.000000 0.000000
vn 0.000000 -1.000000 0.000000
vn 0.000000 -1.000000 0.000000
vn 0.000000 -1.000000 0.000000
vn 0.000000 -1.000000 0.000000
vn 0.000000 -1.000000 0.000000
vn 0.000000 -1.000000 0.000000
vn 0.000000 -1.000000 0.000000
vn 0.000000 -1.000000 0.000000
vn 0.000000 -1.000000 0.000000
vn 0.000000 -1.000000 0.000000
vn 0.000000 -1.000000 0.000000
vn 0.000000 -1.000000 0.000000
vn 0.000000 -1.000000 0.000000
vn 0.000000 -1.000000 0.000000
vn 0.000000 -1.000000 0.000000
vn 0.000000 -1.000000 0.000000
vn 0.000000 -1.000000 0.000000
vn 0.000000 -1.000000 0.000000
vn 0.000000 -1.000000 0.000000
vn 0.000000 -1.000000 0.000000
vn 0.000000 -1.000000 -0.000000
vn 0.000000 -1.000000 -0.000000
vn 0.000000 -1.000000 -0.000000
vn 0.000000 -1.000000 -0.000000
vn 0.000000 -1.000000 0.000000
vn 0.000000 -1.000000 0.000000
vn 0.000000 -1.000000 0.000000
vn 0.000000 -1.000000 0.000000
vn 0.227726 0.578445 -0.783289
vn 0.227726 0.578445 -0.783289
vn 0.227726 0.578445 -0.783289
vn -0.186445 0.583637 -0.790320
vn -0.186445 0.583637 -0.790320
vn -0.186445 0.583637 -0.790320
vn -0.850289 0.525507 -0.029192
vn -0.850289 0.525506 -0.029192
vn -0.850289 0.525507 -0.029193
vn -0.848159 0.524190 0.076486
vn -0.848159 0.524190 0.076486
vn -0.848159 0.524190 0.076486
vn -0.157600 0.553115 0.818063
vn -0.157600 0.553115 0.818063
vn -0.157600 0.553115 0.818063
vn 0.351221 0.524430 0.775640
vn 0.351221 0.524430 0.775640
vn 0.351221 0.524430 0.775640
vn 0.811959 0.510012 0.283919
vn 0.811959 0.510012 0.283919
vn 0.811959 0.510012 0.283919
vn 0.843915 0.530084 -0.082576
vn 0.843915 0.530084 -0.082576
vn 0.843915 0.530083 -0.082576
vn 0.000000 -1.000000 0.000000
vn 0.000000 -1.000000 0.000000
vn 0.000000 -1.000000 0.000000
vn 0.000000 -1.000000 0.000000
vn 0.000000 -1.000000 0.000000
vn 0.000000 -1.000000 0.000000
vn 0.000000 -1.000000 0.000000
vn 0.000000 -1.000000 0.000000
vn 0.000000 -1.000000 0.000000
vn 0.000000 -1.000000 0.000000
vn 0.000000 -1.000000 0.000000
vn 0.000000 -1.000000 0.000000
vn 0.000000 -1.000000 -0.000000
vn 0.000000 -1.000000 -0.000000
vn 0.000000 -1.000000 -0.000000
vn 0.000000 -1.000000 -0.000000
vn 0.669256 0.196388 -0.716609
vn 0.669256 0.196388 -0.716609
vn 0.669256 0.196388 -0.716609
vn 0.669256 0.196388 -0.716609
vn -0.214773 0.047193 -0.975523
vn -0.214773 0.047193 -0.975523
vn -0.214773 0.047193 -0.975523
vn -0.214773 0.047193 -0.975523
vn -0.326068 -0.590527 0.738213
vn -0.326068 -0.590527 0.738213
vn -0.326068 -0.590527 0.738213
vn 0.038789 -0.538688 0.841612
vn 0.038789 -0.538688 0.841612
vn 0.038789 -0.538688 0.841612
vn 0.973621 0.115007 -0.197068
vn 0.973621 0.115007 -0.197068
vn 0.973621 0.115007 -0.197068
vn 0.973621 0.115007 -0.197068
vn 0.206466 -0.944664 -0.254915
vn 0.206466 -0.944664 -0.254915
vn 0.206466 -0.944664 -0.254915
vn 0.206466 -0.944664 -0.254915
vn 0.206466 -0.944665 -0.254911
vn 0.206466 -0.944665 -0.254911
vn 0.206466 -0.944665 -0.254911
vn 0.206466 -0.944665 -0.254911
vn 0.206471 -0.944664 -0.254911
vn 0.206471 -0.944664 -0.254911
vn 0.206471 -0.944664 -0.254911
vn 0.206471 -0.944664 -0.254911
vn 0.206469 -0.944666 -0.254904
vn 0.206469 -0.944666 -0.254904
vn 0.206469 -0.944666 -0.254904
vn 0.206469 -0.944666 -0.254904
vn 0.206475 -0.944662 -0.254913
vn 0.206475 -0.944662 -0.254913
vn 0.206475 -0.944662 -0.254913
vn 0.206475 -0.944662 -0.254913
vn 0.206472 -0.944665 -0.254907
vn 0.206472 -0.944665 -0.254907
vn 0.206472 -0.944665 -0.254907
vn 0.206472 -0.944665 -0.254907
vn 0.163618 0.774844 -0.610611
vn 0.163618 0.774844 -0.610611
vn 0.163618 0.774844 -0.610611
vn 0.002622 0.756191 -0.654346
vn 0.002622 0.756191 -0.654346
vn 0.002622 0.756191 -0.654346
vn -0.944201 -0.173175 -0.280170
vn -0.944201 -0.173175 -0.280170
vn -0.944201 -0.173175 -0.280170
vn -0.735160 0.676531 0.042956
vn -0.735160 0.676531 0.042956
vn -0.735160 0.676531 0.042956
vn -0.551028 0.293194 0.781284
vn -0.551028 0.293194 0.781284
vn -0.551028 0.293194 0.781284
vn 0.525841 -0.153229 0.836667
vn 0.525841 -0.153229 0.836667
vn 0.525841 -0.153229 0.836667
vn 0.363595 0.334879 0.869284
vn 0.363595 0.334879 0.869284
vn 0.363595 0.334879 0.869284
vn 0.681744 0.620386 0.387745
vn 0.681744 0.620386 0.387745
vn 0.681744 0.620386 0.387745
vn 0.206471 -0.944663 -0.254914
vn 0.206471 -0.944663 -0.254914
vn 0.206471 -0.944663 -0.254914
vn 0.206471 -0.944663 -0.254914
vn 0.206464 -0.944667 -0.254906
vn 0.206464 -0.944667 -0.254906
vn 0.206464 -0.944667 -0.254906
vn 0.206464 -0.944667 -0.254906
vn 0.206463 -0.944665 -0.254912
vn 0.206463 -0.944665 -0.254912
vn 0.206463 -0.944665 -0.254912
vn 0.206463 -0.944665 -0.254912
vn 0.206467 -0.944664 -0.254915
vn 0.206467 -0.944664 -0.254915
vn 0.206467 -0.944664 -0.254915
vn 0.206467 -0.944664 -0.254915
vn -0.890533 -0.396697 0.222669
vn -0.890533 -0.396697 0.222669
vn -0.890533 -0.396697 0.222669
vn -0.916048 -0.396424 0.060865
vn -0.916048 -0.396424 0.060865
vn -0.916048 -0.396424 0.060865
vn -0.916049 -0.396421 0.060863
vn -0.916049 -0.396421 0.060863
vn -0.916049 -0.396421 0.060863
vn -0.926983 0.373850 -0.030620
vn -0.926983 0.373850 -0.030620
vn -0.926983 0.373850 -0.030620
vn -0.752844 0.658188 0.003908
vn -0.752844 0.658188 0.003908
vn -0.752844 0.658188 0.003908
vn -0.890381 0.421455 -0.172039
vn -0.890381 0.421455 -0.172039
vn -0.890381 0.421455 -0.172039
vn -0.749471 0.659996 0.051951
vn -0.749470 0.659996 0.051951
vn -0.749471 0.659996 0.051951
vn -0.667376 -0.091299 -0.739104
vn -0.667376 -0.091299 -0.739104
vn -0.667376 -0.091299 -0.739103
vn -0.749587 -0.171070 -0.639417
vn -0.749587 -0.171070 -0.639417
vn -0.749587 -0.171070 -0.639417
vn -0.749588 -0.171072 -0.639415
vn -0.749588 -0.171072 -0.639415
vn -0.749588 -0.171072 -0.639415
vn 0.794616 -0.174330 0.581545
vn 0.794616 -0.174330 0.581545
vn 0.794616 -0.174330 0.581545
vn 0.819730 -0.149788 0.552816
vn 0.819730 -0.149788 0.552816
vn 0.819730 -0.149788 0.552816
vn 0.819717 -0.149806 0.552830
vn 0.819717 -0.149806 0.552830
vn 0.819717 -0.149806 0.552830
vn 0.619690 0.561896 0.547958
vn 0.619690 0.561896 0.547958
vn 0.619690 0.561896 0.547958
vn 0.619690 0.561896 0.547958
vn 0.078198 0.372328 0.924801
vn 0.078198 0.372328 0.924801
vn 0.078198 0.372328 0.924801
vn 0.078198 0.372328 0.924801
vn 0.206471 -0.944665 -0.254909
vn 0.206471 -0.944665 -0.254909
vn 0.206471 -0.944665 -0.254909
vn 0.206470 -0.944666 -0.254903
vn 0.206470 -0.944666 -0.254903
vn 0.206470 -0.944666 -0.254903
vn 0.206468 -0.944665 -0.254909
vn 0.206468 -0.944665 -0.254909
vn 0.206468 -0.944665 -0.254909
vn 0.113550 -0.373968 0.920464
vn 0.113550 -0.373968 0.920464
vn 0.113550 -0.373968 0.920464
vn 0.193609 -0.381377 0.903917
vn 0.193609 -0.381377 0.903917
vn 0.193609 -0.381377 0.903917
vn 0.193617 -0.381382 0.903914
vn 0.193617 -0.381382 0.903914
vn 0.193617 -0.381382 0.903914
vn 0.193622 -0.381381 0.903913
vn 0.193622 -0.381381 0.903913
vn 0.193622 -0.381381 0.903913
vn -0.581774 -0.445068 0.680774
vn -0.581774 -0.445068 0.680774
vn -0.581774 -0.445068 0.680774
vn -0.539705 -0.439166 0.718228
vn -0.539705 -0.439166 0.718228
vn -0.539705 -0.439166 0.718228
vn -0.606178 -0.457014 0.650911
vn -0.606178 -0.457014 0.650912
vn -0.606178 -0.457014 0.650911
vn 0.206460 -0.944665 -0.254917
vn 0.206460 -0.944665 -0.254917
vn 0.206460 -0.944665 -0.254917
vn 0.206456 -0.944666 -0.254917
vn 0.206456 -0.944666 -0.254917
vn 0.206456 -0.944666 -0.254917
vn 0.206472 -0.944666 -0.254902
vn 0.206472 -0.944666 -0.254902
vn 0.206472 -0.944666 -0.254902
s off
g CrystalDrop1_pCylinder1
usemtl CrystalDrop1_initialShadingGroup
f 1/1/1 2/2/2 10/3/3 9/4/4
f 2/2/5 3/5/6 11/6/7 10/3/8
f 3/7/9 4/8/10 12/9/11 11/10/12
f 4/8/13 5/11/14 13/12/15 12/9/16
f 5/11/17 6/13/18 14/14/19 13/12/20
f 6/13/21 7/15/22 15/16/23 14/14/24
f 7/15/25 8/17/26 16/18/27 15/16/28
f 8/17/29 1/1/30 9/4/31 16/18/32
f 2/19/33 1/20/34 23/21/35 24/22/36
f 3/7/37 2/19/38 24/22/39 25/23/40
f 4/8/41 3/7/42 25/23/43 18/24/44
f 5/25/45 4/8/46 18/24/47 19/26/48
f 6/27/49 5/25/50 19/26/51 20/28/52
f 7/29/53 6/27/54 20/28/55 21/30/56
f 8/31/57 7/29/58 21/30/59 22/32/60
f 1/20/61 8/31/62 22/32/63 23/21/64
f 9/4/65 10/3/66 17/33/67
f 10/3/68 11/6/69 17/33/70
f 11/10/71 12/9/72 17/33/73
f 12/9/74 13/12/75 17/33/76
f 13/12/77 14/14/78 17/33/79
f 14/14/80 15/16/81 17/33/82
f 15/16/83 16/18/84 17/33/85
f 16/18/86 9/4/87 17/33/88
f 20/28/89 26/34/90 22/32/91 21/30/92
f 24/22/93 23/21/94 22/32/95 26/34/96
f 18/24/97 26/34/98 20/28/99 19/26/100
f 24/22/101 26/34/102 18/24/103 25/23/104
f 27/35/105 28/36/106 35/37/107 34/38/108
f 28/36/109 29/39/110 36/40/111 35/37/112
f 59/41/113 60/42/114 61/43/115
f 61/43/116 60/42/117 58/44/118
f 33/45/119 27/35/120 34/38/121 39/46/122
f 28/47/123 27/48/124 46/49/125 47/50/126
f 29/51/127 28/47/128 47/50/129 48/52/130
f 30/53/131 29/51/132 48/52/133 41/54/134
f 31/55/135 30/53/136 41/54/137 42/56/138
f 33/57/139 32/58/140 44/59/141 45/60/142
f 27/48/143 33/57/144 45/60/145 46/49/146
f 34/38/147 35/37/148 40/61/149
f 35/37/150 36/40/151 40/61/152
f 52/62/153 51/63/154 50/64/155
f 50/64/156 51/63/157 53/65/158
f 37/66/159 38/67/160 40/61/161
f 56/68/162 55/69/163 54/70/164
f 54/70/165 55/69/166 57/71/167
f 39/46/168 34/38/169 40/61/170
f 43/72/171 49/73/172 45/60/173 44/59/174
f 47/50/175 46/49/176 45/60/177 49/73/178
f 41/54/179 49/73/180 43/72/181 42/56/182
f 47/50/183 49/73/184 41/54/185 48/52/186
f 37/74/187 51/63/188 31/75/189
f 51/63/190 52/62/191 31/75/192
f 30/76/193 31/75/194 52/62/195
f 40/61/196 53/65/197 37/74/198
f 53/65/199 51/63/200 37/74/201
f 40/61/202 36/40/203 53/65/204
f 36/40/205 50/64/206 53/65/207
f 36/40/208 29/39/209 50/64/210
f 50/64/211 29/39/212 52/62/213
f 29/39/214 30/76/215 52/62/216
f 39/46/217 55/69/218 33/45/219
f 55/69/220 56/68/221 33/45/222
f 32/77/223 33/45/224 56/68/225
f 57/71/226 55/69/227 39/46/228 40/61/229
f 38/67/230 54/70/231 57/71/232 40/61/233
f 32/58/234 59/78/235 44/59/236
f 44/59/237 59/78/238 43/72/239
f 59/78/240 61/79/241 43/72/242
f 38/67/243 60/42/244 54/70/245
f 54/70/246 60/42/247 56/68/248
f 32/77/249 56/68/250 59/41/251
f 60/42/252 59/41/253 56/68/254
f 38/67/255 37/66/256 60/42/257
f 31/55/258 58/44/259 37/66/260
f 58/44/261 60/42/262 37/66/263
f 31/55/264 42/56/265 58/44/266
f 42/56/267 43/72/268 58/44/269
f 61/79/270 58/44/271 43/72/272
