# This file uses centimeters as units for non-parametric coordinates.

mtllib Sign1.mtl
g default
v -0.156196 0.000000 0.029656
v -0.156196 0.034305 0.063961
v -0.190501 0.034305 0.029656
v 0.213234 0.034305 0.029656
v 0.178929 0.034305 0.063961
v 0.178929 0.000000 0.029656
v -0.190501 4.280229 0.029656
v -0.156196 4.280229 0.063961
v -0.156196 4.314534 0.029656
v 0.178929 4.314534 0.029656
v 0.178929 4.280229 0.063961
v 0.213234 4.280229 0.029656
v -0.190501 4.280229 -0.130458
v -0.156196 4.314534 -0.130458
v -0.156196 4.280229 -0.164763
v 0.178929 4.280229 -0.164763
v 0.178929 4.314534 -0.130458
v 0.213234 4.280229 -0.130458
v -0.190501 0.034305 -0.130458
v -0.156196 0.034305 -0.164763
v -0.156196 0.000000 -0.130458
v 0.178929 0.000000 -0.130458
v 0.178929 0.034305 -0.164763
v 0.213234 0.034305 -0.130458
v -0.101195 2.690101 0.063961
v -0.135501 2.690101 0.029656
v -0.135501 2.690101 -0.130458
v -0.101195 2.690101 -0.164763
v 0.233930 2.690101 -0.164763
v 0.268235 2.690101 -0.130458
v 0.268235 2.690101 0.029656
v 0.233930 2.690101 0.063961
v -0.209008 1.843561 0.079045
v -0.247838 1.843561 0.040215
v -0.247838 1.843561 -0.141017
v -0.209008 1.843561 -0.179847
v 0.170319 1.843561 -0.179847
v 0.209149 1.843561 -0.141017
v 0.209149 1.843561 0.040215
v 0.170319 1.843561 0.079045
v -0.212126 0.892326 0.054685
v -0.243649 0.892326 0.023163
v -0.243649 0.892326 -0.123964
v -0.212126 0.892326 -0.155487
v 0.095817 0.892326 -0.155487
v 0.127340 0.892326 -0.123964
v 0.127340 0.892326 0.023163
v 0.095817 0.892326 0.054685
v -0.773773 3.242277 0.162196
v -0.773773 3.259927 0.179847
v -0.791422 3.259927 0.162196
v 0.803386 3.250426 0.161661
v 0.786941 3.259073 0.179847
v 0.778995 3.242277 0.161661
v -0.773773 4.001742 0.179847
v -0.773773 4.019392 0.162196
v -0.791422 4.001742 0.162196
v 0.803363 4.011624 0.161926
v 0.779039 4.019392 0.161656
v 0.787146 4.002605 0.179847
v -0.791422 4.001742 0.076250
v -0.773773 4.019392 0.076250
v -0.773773 4.001742 0.058600
v 0.787146 4.002605 0.058600
v 0.779239 4.019392 0.076520
v 0.803363 4.011624 0.076520
v -0.773773 3.259927 0.058600
v -0.773773 3.242277 0.076250
v -0.791422 3.259927 0.076250
v 0.803228 3.250307 0.076518
v 0.778995 3.242277 0.076785
v 0.786941 3.259073 0.058600
v -0.791422 3.639733 0.162196
v -0.773773 3.639733 0.179847
v 1.320975 3.639733 0.162196
v 1.291179 3.639408 0.179847
v -0.791422 3.639733 0.076250
v -0.773773 3.639733 0.058600
v 1.291179 3.639408 0.058600
v 1.320975 3.639733 0.076250
v 0.541533 3.214554 0.161743
v 0.548264 3.231480 0.179847
v 0.547592 3.611734 0.179847
v 0.548438 3.974750 0.179847
v 0.541571 3.991668 0.161739
v 0.541740 3.991668 0.076479
v 0.548438 3.974750 0.058600
v 0.553434 3.611734 0.058600
v 0.548264 3.231480 0.058600
v 0.541533 3.214554 0.076704
v -0.367396 3.306138 0.162056
v -0.365317 3.323564 0.179847
v -0.376455 3.703508 0.179847
v -0.365263 4.065828 0.179847
v -0.367385 4.083252 0.162055
v -0.367332 4.083252 0.076321
v -0.365263 4.065828 0.058600
v -0.364125 3.703508 0.058600
v -0.365317 3.323564 0.058600
v -0.367396 3.306138 0.076390
vt 0.876120 0.988056
vt 0.867220 0.988056
vt 0.867220 0.970529
vt 0.876120 0.970529
vt 0.876120 0.006877
vt 0.876120 0.002036
vt 0.911572 0.002036
vt 0.911572 0.006877
vt 0.871012 0.006877
vt 0.876120 0.101025
vt 0.871012 0.101025
vt 0.915008 0.988056
vt 0.911572 0.988056
vt 0.911572 0.970529
vt 0.915008 0.970529
vt 0.916684 0.006877
vt 0.916684 0.101025
vt 0.911572 0.101025
vt 0.871012 0.475315
vt 0.876120 0.475315
vt 0.876120 0.497515
vt 0.871012 0.497515
vt 0.876120 0.472231
vt 0.911572 0.472231
vt 0.911572 0.475315
vt 0.916684 0.475315
vt 0.916684 0.497515
vt 0.911572 0.497515
vt 0.871012 0.871353
vt 0.876120 0.871353
vt 0.876120 0.965679
vt 0.871012 0.965679
vt 0.876120 0.497515
vt 0.911572 0.497515
vt 0.911572 0.871353
vt 0.916684 0.871353
vt 0.916684 0.965679
vt 0.911572 0.965679
vt 0.937555 0.006877
vt 0.937555 0.101025
vt 0.854699 0.006877
vt 0.854699 0.101025
vt 0.871012 0.298445
vt 0.876120 0.298445
vt 0.854699 0.298445
vt 0.854699 0.475315
vt 0.876120 0.674296
vt 0.871012 0.674296
vt 0.911572 0.674296
vt 0.916684 0.674296
vt 0.916684 0.298445
vt 0.937555 0.298445
vt 0.937555 0.475315
vt 0.911572 0.298445
vt 0.871012 0.205418
vt 0.876120 0.205418
vt 0.854699 0.205418
vt 0.876120 0.767100
vt 0.871012 0.767100
vt 0.911572 0.767100
vt 0.916684 0.767100
vt 0.916684 0.205418
vt 0.937555 0.205418
vt 0.911572 0.205418
vt 0.099454 0.914901
vt 0.091435 0.915520
vt 0.089344 0.888142
vt 0.097358 0.887561
vt 0.092673 0.345962
vt 0.091543 0.338002
vt 0.225194 0.350293
vt 0.225911 0.358333
vt 0.084836 0.345134
vt 0.094501 0.468585
vt 0.086417 0.468797
vt 0.613837 0.900078
vt 0.605621 0.901197
vt 0.602071 0.873940
vt 0.610200 0.872767
vt 0.599717 0.346248
vt 0.607297 0.341511
vt 0.746874 0.463494
vt 0.736432 0.463899
vt 0.099459 0.588777
vt 0.091402 0.588979
vt 0.101060 0.597310
vt 0.229013 0.591512
vt 0.228487 0.598997
vt 0.093327 0.596597
vt 0.101398 0.626866
vt 0.093427 0.627619
vt 0.613090 0.592196
vt 0.604793 0.588293
vt 0.601926 0.595537
vt 0.609967 0.594646
vt 0.610270 0.620971
vt 0.602078 0.620631
vt 0.063661 0.589856
vt 0.055628 0.590170
vt 0.050675 0.469729
vt 0.058707 0.469378
vt 0.099944 0.635385
vt 0.228784 0.624876
vt 0.229475 0.632335
vt 0.604766 0.627862
vt 0.611965 0.623318
vt 0.773162 0.747273
vt 0.761344 0.747167
vt 0.098343 0.879705
vt 0.090445 0.880855
vt 0.088746 0.757562
vt 0.096794 0.757155
vt 0.231680 0.865509
vt 0.231138 0.873646
vt 0.610373 0.870891
vt 0.603693 0.865936
vt 0.223004 0.480145
vt 0.229650 0.743882
vt 0.231707 0.901380
vt 0.628473 0.321672
vt 0.772464 0.463025
vt 0.057308 0.344894
vt 0.634724 0.609640
vt 0.598673 0.338407
vt 0.522716 0.338430
vt 0.520953 0.330424
vt 0.516436 0.463487
vt 0.523548 0.585529
vt 0.521338 0.593953
vt 0.521948 0.623165
vt 0.524417 0.631458
vt 0.525484 0.751752
vt 0.528525 0.874847
vt 0.526777 0.882855
vt 0.527777 0.910099
vn -0.707101 -0.707113 0.000000
vn -0.707101 -0.707113 0.000000
vn -0.707101 -0.707113 0.000000
vn -0.707101 -0.707113 0.000000
vn 0.000000 -0.707107 0.707107
vn 0.000000 -0.707107 0.707107
vn 0.000000 -0.707107 0.707107
vn 0.000000 -0.707107 0.707107
vn -0.706578 -0.038420 0.706592
vn -0.706578 -0.038420 0.706592
vn -0.706578 -0.038420 0.706591
vn -0.706578 -0.038420 0.706592
vn 0.707108 -0.707105 0.000000
vn 0.707108 -0.707105 0.000000
vn 0.707108 -0.707105 0.000000
vn 0.707108 -0.707105 0.000000
vn 0.705062 0.075918 0.705070
vn 0.705062 0.075918 0.705070
vn 0.705062 0.075918 0.705070
vn 0.705062 0.075918 0.705070
vn -0.707102 0.707112 0.000000
vn -0.707102 0.707112 0.000000
vn -0.707102 0.707112 0.000000
vn -0.707102 0.707112 0.000000
vn 0.000000 0.707104 0.707109
vn 0.000000 0.707104 0.707109
vn 0.000000 0.707104 0.707109
vn 0.000000 0.707104 0.707109
vn 0.707109 0.707104 0.000000
vn 0.707109 0.707104 0.000000
vn 0.707109 0.707104 0.000000
vn 0.707109 0.707104 0.000000
vn -0.706583 -0.038420 -0.706587
vn -0.706583 -0.038420 -0.706587
vn -0.706583 -0.038420 -0.706587
vn -0.706583 -0.038420 -0.706587
vn 0.000000 0.707104 -0.707109
vn 0.000000 0.707104 -0.707109
vn 0.000000 0.707104 -0.707109
vn 0.000000 0.707104 -0.707109
vn 0.705067 0.075919 -0.705065
vn 0.705067 0.075919 -0.705065
vn 0.705067 0.075919 -0.705065
vn 0.705067 0.075919 -0.705065
vn 0.000000 -0.707107 -0.707107
vn 0.000000 -0.707107 -0.707107
vn 0.000000 -0.707107 -0.707107
vn 0.000000 -0.707107 -0.707107
vn 0.000000 0.010810 0.999942
vn 0.000000 0.010810 0.999942
vn 0.000000 0.010810 0.999942
vn 0.000000 0.010810 0.999942
vn 0.000000 1.000000 0.000000
vn 0.000000 1.000000 0.000000
vn 0.000000 1.000000 0.000000
vn 0.000000 1.000000 0.000000
vn 0.000000 0.010810 -0.999942
vn 0.000000 0.010810 -0.999942
vn 0.000000 0.010810 -0.999942
vn 0.000000 0.010810 -0.999942
vn 0.000000 -1.000000 0.000000
vn 0.000000 -1.000000 0.000000
vn 0.000000 -1.000000 0.000000
vn 0.000000 -1.000000 0.000000
vn 0.995027 0.099609 0.000000
vn 0.995027 0.099609 0.000000
vn 0.995027 0.099609 0.000000
vn 0.995027 0.099609 0.000000
vn -0.998087 -0.061824 0.000000
vn -0.998087 -0.061824 0.000000
vn -0.998087 -0.061824 0.000000
vn -0.998087 -0.061824 0.000000
vn -0.577351 -0.577349 0.577350
vn -0.577351 -0.577349 0.577350
vn -0.577351 -0.577349 0.577350
vn 0.577359 -0.577342 0.577350
vn 0.577359 -0.577342 0.577350
vn 0.577359 -0.577342 0.577350
vn -0.577356 0.577355 0.577340
vn -0.577356 0.577355 0.577340
vn -0.577356 0.577355 0.577340
vn 0.577361 0.577345 0.577345
vn 0.577361 0.577345 0.577345
vn 0.577361 0.577345 0.577345
vn -0.577356 0.577355 -0.577340
vn -0.577356 0.577355 -0.577340
vn -0.577356 0.577355 -0.577340
vn 0.577361 0.577345 -0.577345
vn 0.577361 0.577345 -0.577345
vn 0.577361 0.577345 -0.577345
vn -0.577350 -0.577350 -0.577351
vn -0.577350 -0.577350 -0.577351
vn -0.577350 -0.577350 -0.577351
vn 0.577357 -0.577343 -0.577350
vn 0.577357 -0.577343 -0.577350
vn 0.577357 -0.577343 -0.577350
vn -0.706889 -0.024450 0.706901
vn -0.706889 -0.024450 0.706901
vn -0.706889 -0.024450 0.706901
vn -0.706889 -0.024450 0.706901
vn -0.999402 -0.034568 0.000000
vn -0.999402 -0.034568 0.000000
vn -0.999402 -0.034568 0.000000
vn -0.999402 -0.034568 0.000000
vn -0.706890 -0.024450 -0.706901
vn -0.706890 -0.024450 -0.706901
vn -0.706890 -0.024450 -0.706901
vn -0.706890 -0.024450 -0.706901
vn 0.000000 0.000000 -1.000000
vn 0.000000 0.000000 -1.000000
vn 0.000000 0.000000 -1.000000
vn 0.000000 0.000000 -1.000000
vn 0.706897 0.024451 -0.706894
vn 0.706897 0.024451 -0.706894
vn 0.706897 0.024451 -0.706894
vn 0.706897 0.024451 -0.706894
vn 0.999402 0.034569 0.000000
vn 0.999402 0.034569 0.000000
vn 0.999402 0.034569 0.000000
vn 0.999402 0.034569 0.000000
vn 0.706897 0.024451 0.706894
vn 0.706897 0.024451 0.706894
vn 0.706897 0.024451 0.706894
vn 0.706897 0.024451 0.706894
vn 0.000000 0.000000 1.000000
vn 0.000000 0.000000 1.000000
vn 0.000000 0.000000 1.000000
vn 0.000000 0.000000 1.000000
vn -0.703404 0.102117 0.703417
vn -0.703404 0.102117 0.703417
vn -0.703404 0.102117 0.703417
vn -0.703404 0.102117 0.703417
vn -0.991310 0.131549 0.000000
vn -0.991310 0.131549 0.000000
vn -0.991310 0.131549 0.000000
vn -0.991310 0.131549 0.000000
vn -0.703404 0.102117 -0.703417
vn -0.703404 0.102117 -0.703417
vn -0.703404 0.102117 -0.703417
vn -0.703404 0.102117 -0.703417
vn 0.000000 0.017816 -0.999841
vn 0.000000 0.017816 -0.999841
vn 0.000000 0.017816 -0.999841
vn 0.000000 0.017816 -0.999841
vn 0.706525 -0.040501 -0.706528
vn 0.706525 -0.040501 -0.706528
vn 0.706525 -0.040501 -0.706528
vn 0.706525 -0.040501 -0.706528
vn 0.997573 -0.069628 0.000000
vn 0.997573 -0.069628 0.000000
vn 0.997573 -0.069628 0.000000
vn 0.997573 -0.069628 0.000000
vn 0.706525 -0.040501 0.706528
vn 0.706525 -0.040501 0.706528
vn 0.706525 -0.040501 0.706528
vn 0.706525 -0.040501 0.706528
vn 0.000000 0.017816 0.999841
vn 0.000000 0.017816 0.999841
vn 0.000000 0.017816 0.999841
vn 0.000000 0.017816 0.999841
vn -0.707011 -0.015788 0.707026
vn -0.707011 -0.015788 0.707026
vn -0.707011 -0.015788 0.707026
vn -0.707011 -0.015788 0.707026
vn -0.999990 -0.004403 0.000000
vn -0.999990 -0.004403 0.000000
vn -0.999990 -0.004403 0.000000
vn -0.999990 -0.004403 0.000000
vn -0.707016 -0.015788 -0.707021
vn -0.707016 -0.015788 -0.707021
vn -0.707016 -0.015788 -0.707021
vn -0.707016 -0.015788 -0.707021
vn 0.000000 -0.025600 -0.999672
vn 0.000000 -0.025600 -0.999672
vn 0.000000 -0.025600 -0.999672
vn 0.000000 -0.025600 -0.999672
vn 0.705203 -0.073292 -0.705207
vn 0.705203 -0.073292 -0.705207
vn 0.705203 -0.073292 -0.705207
vn 0.705203 -0.073292 -0.705207
vn 0.996322 -0.085687 0.000000
vn 0.996322 -0.085687 0.000000
vn 0.996322 -0.085687 0.000000
vn 0.996322 -0.085687 0.000000
vn 0.705198 -0.073291 0.705213
vn 0.705198 -0.073291 0.705213
vn 0.705198 -0.073291 0.705213
vn 0.705198 -0.073291 0.705213
vn 0.000000 -0.025600 0.999672
vn 0.000000 -0.025600 0.999672
vn 0.000000 -0.025600 0.999672
vn 0.000000 -0.025600 0.999672
vn -0.707125 -0.707088 0.000000
vn -0.707125 -0.707088 0.000000
vn -0.707125 -0.707088 0.000000
vn -0.707125 -0.707088 0.000000
vn 0.111154 -0.709614 0.695768
vn 0.111154 -0.709614 0.695768
vn 0.111154 -0.709614 0.695768
vn 0.111154 -0.709614 0.695768
vn -0.707142 0.000000 0.707072
vn -0.707142 0.000000 0.707072
vn -0.707142 0.000000 0.707072
vn -0.707142 0.000000 0.707072
vn 0.315730 -0.948849 0.000370
vn 0.315730 -0.948849 0.000370
vn 0.315730 -0.948849 0.000370
vn 0.315730 -0.948849 0.000370
vn 0.433471 -0.575986 0.693068
vn 0.433471 -0.575986 0.693068
vn 0.433471 -0.575986 0.693068
vn 0.433471 -0.575986 0.693068
vn -0.707143 0.000000 0.707070
vn -0.707143 0.000000 0.707070
vn -0.707143 0.000000 0.707070
vn -0.707143 0.000000 0.707070
vn -0.110279 0.703150 0.702438
vn -0.110279 0.703150 0.702438
vn -0.110279 0.703150 0.702438
vn -0.110279 0.703150 0.702438
vn -0.707125 0.707088 0.000000
vn -0.707125 0.707088 0.000000
vn -0.707125 0.707088 0.000000
vn -0.707125 0.707088 0.000000
vn 0.419411 0.583166 0.695709
vn 0.419411 0.583166 0.695710
vn 0.419411 0.583166 0.695709
vn 0.419411 0.583166 0.695710
vn 0.305356 0.952238 0.000357
vn 0.305356 0.952238 0.000357
vn 0.305356 0.952238 0.000357
vn 0.305356 0.952238 0.000357
vn -0.707123 0.000000 -0.707090
vn -0.707123 0.000000 -0.707090
vn -0.707123 0.000000 -0.707090
vn -0.707123 0.000000 -0.707090
vn -0.110233 0.702519 -0.703076
vn -0.110233 0.702519 -0.703076
vn -0.110233 0.702519 -0.703076
vn -0.110233 0.702519 -0.703076
vn 0.419401 0.583150 -0.695729
vn 0.419401 0.583150 -0.695729
vn 0.419401 0.583150 -0.695729
vn 0.419401 0.583150 -0.695729
vn -0.707123 0.000000 -0.707090
vn -0.707123 0.000000 -0.707090
vn -0.707123 0.000000 -0.707090
vn -0.707123 0.000000 -0.707090
vn 0.111151 -0.709595 -0.695787
vn 0.111151 -0.709595 -0.695787
vn 0.111151 -0.709595 -0.695787
vn 0.111151 -0.709595 -0.695787
vn 0.431975 -0.573761 -0.695842
vn 0.431975 -0.573761 -0.695842
vn 0.431975 -0.573761 -0.695842
vn 0.431975 -0.573761 -0.695842
vn -0.000000 0.000000 1.000000
vn -0.000000 0.000000 1.000000
vn -0.000000 0.000000 1.000000
vn -0.000000 0.000000 1.000000
vn -0.155226 0.987879 -0.000047
vn -0.155226 0.987879 -0.000047
vn -0.155226 0.987879 -0.000047
vn -0.155226 0.987879 -0.000047
vn 0.000000 0.000000 -1.000000
vn 0.000000 0.000000 -1.000000
vn 0.000000 0.000000 -1.000000
vn 0.000000 0.000000 -1.000000
vn 0.155243 -0.987876 0.000000
vn 0.155243 -0.987876 0.000000
vn 0.155243 -0.987876 0.000000
vn 0.155243 -0.987876 0.000000
vn 0.601101 -0.799173 0.000000
vn 0.601101 -0.799173 0.000000
vn 0.601101 -0.799173 0.000000
vn 0.601101 -0.799173 0.000000
vn -1.000000 0.000000 0.000000
vn -1.000000 0.000000 0.000000
vn -1.000000 0.000000 0.000000
vn -1.000000 0.000000 0.000000
vn -1.000000 0.000000 0.000000
vn -1.000000 0.000000 0.000000
vn -1.000000 0.000000 0.000000
vn -1.000000 0.000000 0.000000
vn 0.000000 0.000000 -1.000000
vn 0.000000 0.000000 -1.000000
vn 0.000000 0.000000 -1.000000
vn 0.000000 0.000000 -1.000000
vn 0.583488 0.812122 0.000000
vn 0.583488 0.812122 0.000000
vn 0.583488 0.812122 0.000000
vn 0.583488 0.812122 0.000000
vn -0.000000 0.000000 1.000000
vn -0.000000 0.000000 1.000000
vn -0.000000 0.000000 1.000000
vn -0.000000 0.000000 1.000000
vn -0.577383 -0.577348 0.577320
vn -0.577383 -0.577348 0.577320
vn -0.577382 -0.577348 0.577320
vn 0.255027 -0.763325 0.593546
vn 0.255027 -0.763325 0.593546
vn 0.255027 -0.763325 0.593546
vn -0.577383 0.577348 0.577320
vn -0.577383 0.577348 0.577320
vn -0.577382 0.577348 0.577320
vn 0.237451 0.764350 0.599487
vn 0.237451 0.764350 0.599487
vn 0.237451 0.764350 0.599487
vn -0.577380 0.577321 -0.577349
vn -0.577380 0.577321 -0.577349
vn -0.577380 0.577321 -0.577349
vn 0.244455 0.759150 -0.603269
vn 0.244455 0.759150 -0.603269
vn 0.244455 0.759150 -0.603269
vn -0.577380 -0.577321 -0.577349
vn -0.577380 -0.577321 -0.577349
vn -0.577380 -0.577321 -0.577349
vn 0.246338 -0.763237 -0.597317
vn 0.246338 -0.763237 -0.597317
vn 0.246338 -0.763237 -0.597317
vn 0.086904 -0.747061 0.659051
vn 0.086904 -0.747061 0.659051
vn 0.086904 -0.747061 0.659051
vn 0.086904 -0.747061 0.659051
vn -0.000000 0.000000 1.000000
vn -0.000000 0.000000 1.000000
vn -0.000000 0.000000 1.000000
vn -0.000000 0.000000 1.000000
vn 0.000000 0.000000 1.000000
vn 0.000000 0.000000 1.000000
vn 0.000000 0.000000 1.000000
vn 0.000000 0.000000 1.000000
vn -0.083094 0.712954 0.696270
vn -0.083094 0.712954 0.696270
vn -0.083094 0.712954 0.696270
vn -0.083094 0.712954 0.696270
vn -0.115953 0.993254 -0.000252
vn -0.115953 0.993255 -0.000252
vn -0.115953 0.993255 -0.000252
vn -0.115953 0.993255 -0.000252
vn -0.082635 0.708547 -0.700809
vn -0.082635 0.708547 -0.700809
vn -0.082635 0.708547 -0.700809
vn -0.082635 0.708547 -0.700809
vn -0.000000 0.000000 -1.000000
vn -0.000000 0.000000 -1.000000
vn -0.000000 0.000000 -1.000000
vn -0.000000 0.000000 -1.000000
vn -0.000000 0.000000 -1.000000
vn -0.000000 0.000000 -1.000000
vn -0.000000 0.000000 -1.000000
vn -0.000000 0.000000 -1.000000
vn 0.086902 -0.747052 -0.659060
vn 0.086902 -0.747052 -0.659060
vn 0.086902 -0.747052 -0.659060
vn 0.086902 -0.747052 -0.659060
vn 0.115959 -0.993254 0.000000
vn 0.115959 -0.993254 0.000000
vn 0.115959 -0.993254 0.000000
vn 0.115959 -0.993254 0.000000
vn -0.071610 -0.711765 0.698758
vn -0.071610 -0.711765 0.698758
vn -0.071610 -0.711765 0.698758
vn -0.071610 -0.711765 0.698758
vn 0.000000 0.000000 1.000000
vn 0.000000 0.000000 1.000000
vn 0.000000 0.000000 1.000000
vn 0.000000 0.000000 1.000000
vn 0.000000 0.000000 1.000000
vn 0.000000 0.000000 1.000000
vn 0.000000 0.000000 1.000000
vn 0.000000 0.000000 1.000000
vn 0.073254 0.729772 0.679755
vn 0.073254 0.729772 0.679755
vn 0.073254 0.729772 0.679755
vn 0.073254 0.729772 0.679755
vn 0.100243 0.994963 0.000131
vn 0.100243 0.994963 0.000131
vn 0.100243 0.994963 0.000131
vn 0.100243 0.994963 0.000131
vn 0.072883 0.726703 -0.683074
vn 0.072883 0.726703 -0.683074
vn 0.072883 0.726703 -0.683074
vn 0.072883 0.726703 -0.683074
vn 0.000000 0.000000 -1.000000
vn 0.000000 0.000000 -1.000000
vn 0.000000 0.000000 -1.000000
vn 0.000000 0.000000 -1.000000
vn -0.000000 0.000000 -1.000000
vn -0.000000 0.000000 -1.000000
vn -0.000000 0.000000 -1.000000
vn -0.000000 0.000000 -1.000000
vn -0.071608 -0.711756 -0.698768
vn -0.071608 -0.711755 -0.698768
vn -0.071608 -0.711756 -0.698768
vn -0.071608 -0.711756 -0.698768
vn -0.100253 -0.994962 0.000000
vn -0.100253 -0.994962 0.000000
vn -0.100253 -0.994962 0.000000
vn -0.100253 -0.994962 0.000000
s off
g SIgn1_Sign1
usemtl SIgn1_initialShadingGroup
f 1/1/1 3/2/2 19/3/3 21/4/4
f 2/5/5 1/6/6 6/7/7 5/8/8
f 3/9/9 2/5/10 41/10/11 42/11/12
f 4/12/13 6/13/14 22/14/15 24/15/16
f 5/8/17 4/16/18 47/17/19 48/18/20
f 7/19/21 9/20/22 14/21/23 13/22/24
f 9/20/25 8/23/26 11/24/27 10/25/28
f 10/25/29 12/26/30 18/27/31 17/28/32
f 43/29/33 44/30/34 20/31/35 19/32/36
f 15/33/37 14/21/38 17/28/39 16/34/40
f 45/35/41 46/36/42 24/37/43 23/38/44
f 21/4/45 20/31/46 23/38/47 22/14/48
f 2/5/49 5/8/50 48/18/51 41/10/52
f 9/20/53 10/25/54 17/28/55 14/21/56
f 44/30/57 45/35/58 23/38/59 20/31/60
f 21/4/61 22/14/62 6/13/63 1/1/64
f 4/16/65 24/39/66 46/40/67 47/17/68
f 19/41/69 3/9/70 42/11/71 43/42/72
f 1/6/73 2/5/74 3/9/75
f 4/16/76 5/8/77 6/7/78
f 7/19/79 8/23/80 9/20/81
f 10/25/82 11/24/83 12/26/84
f 13/22/85 14/21/86 15/33/87
f 16/34/88 17/28/89 18/27/90
f 19/32/91 20/31/92 21/4/93
f 22/14/94 23/38/95 24/37/96
f 26/43/97 25/44/98 8/23/99 7/19/100
f 27/45/101 26/43/102 7/19/103 13/46/104
f 13/22/105 15/33/106 28/47/107 27/48/108
f 15/33/109 16/34/110 29/49/111 28/47/112
f 16/34/113 18/27/114 30/50/115 29/49/116
f 31/51/117 30/52/118 18/53/119 12/26/120
f 32/54/121 31/51/122 12/26/123 11/24/124
f 25/44/125 32/54/126 11/24/127 8/23/128
f 34/55/129 33/56/130 25/44/131 26/43/132
f 35/57/133 34/55/134 26/43/135 27/45/136
f 27/48/137 28/47/138 36/58/139 35/59/140
f 28/47/141 29/49/142 37/60/143 36/58/144
f 29/49/145 30/50/146 38/61/147 37/60/148
f 39/62/149 38/63/150 30/52/151 31/51/152
f 40/64/153 39/62/154 31/51/155 32/54/156
f 33/56/157 40/64/158 32/54/159 25/44/160
f 42/11/161 41/10/162 33/56/163 34/55/164
f 43/42/165 42/11/166 34/55/167 35/57/168
f 35/59/169 36/58/170 44/30/171 43/29/172
f 36/58/173 37/60/174 45/35/175 44/30/176
f 37/60/177 38/61/178 46/36/179 45/35/180
f 47/17/181 46/40/182 38/63/183 39/62/184
f 48/18/185 47/17/186 39/62/187 40/64/188
f 41/10/189 48/18/190 40/64/191 33/56/192
f 49/65/193 51/66/194 69/67/195 68/68/196
f 50/69/197 49/70/198 91/71/199 92/72/200
f 51/73/201 50/69/202 74/74/203 73/75/204
f 52/76/205 54/77/206 71/78/207 70/79/208
f 53/80/209 52/81/210 75/82/211 76/83/212
f 55/84/213 57/85/214 73/75/215 74/74/216
f 56/86/217 55/84/218 94/87/219 95/88/220
f 57/89/221 56/86/222 62/90/223 61/91/224
f 58/92/225 60/93/226 76/83/227 75/82/228
f 59/94/229 58/95/230 66/96/231 65/97/232
f 61/98/233 63/99/234 78/100/235 77/101/236
f 63/102/237 62/90/238 96/103/239 97/104/240
f 64/105/241 66/106/242 80/107/243 79/108/244
f 67/109/245 69/110/246 77/111/247 78/112/248
f 68/68/249 67/109/250 99/113/251 100/114/252
f 70/115/253 72/116/254 79/108/255 80/107/256
f 50/69/257 92/72/258 93/117/259 74/74/260
f 56/86/261 95/88/262 96/103/263 62/90/264
f 78/112/265 98/118/266 99/113/267 67/109/268
f 68/68/269 100/114/270 91/119/271 49/65/272
f 52/81/273 70/120/274 80/121/275 75/82/276
f 69/122/277 51/73/278 73/75/279 77/101/280
f 77/101/281 73/75/282 57/85/283 61/98/284
f 63/102/285 97/104/286 98/118/287 78/112/288
f 75/82/289 80/121/290 66/123/291 58/92/292
f 74/74/293 93/117/294 94/87/295 55/84/296
f 49/70/297 50/69/298 51/73/299
f 52/81/300 53/80/301 54/124/302
f 55/84/303 56/86/304 57/89/305
f 58/95/306 59/94/307 60/93/308
f 61/91/309 62/90/310 63/102/311
f 64/105/312 65/97/313 66/96/314
f 67/109/315 68/68/316 69/110/317
f 70/115/318 71/78/319 72/116/320
f 82/125/321 81/126/322 54/124/323 53/80/324
f 83/127/325 82/125/326 53/80/327 76/83/328
f 84/128/329 83/127/330 76/83/331 60/93/332
f 85/129/333 84/128/334 60/93/335 59/94/336
f 86/130/337 85/129/338 59/94/339 65/97/340
f 87/131/341 86/130/342 65/97/343 64/105/344
f 88/132/345 87/131/346 64/105/347 79/108/348
f 89/133/349 88/132/350 79/108/351 72/116/352
f 90/134/353 89/133/354 72/116/355 71/78/356
f 81/135/357 90/134/358 71/78/359 54/77/360
f 92/72/361 91/71/362 81/126/363 82/125/364
f 93/117/365 92/72/366 82/125/367 83/127/368
f 94/87/369 93/117/370 83/127/371 84/128/372
f 95/88/373 94/87/374 84/128/375 85/129/376
f 96/103/377 95/88/378 85/129/379 86/130/380
f 97/104/381 96/103/382 86/130/383 87/131/384
f 98/118/385 97/104/386 87/131/387 88/132/388
f 99/113/389 98/118/390 88/132/391 89/133/392
f 100/114/393 99/113/394 89/133/395 90/134/396
f 91/119/397 100/114/398 90/134/399 81/135/400
